# xmcd
#
# Track frame offsets: 
#        150
#        13692
#        34980
#        60422
#        92907
#        112960
#        128987
#        143257
#        165860
#        178762
#        195077
#        210230
#        227920
#        247965
#
# Disc length: 3603 seconds
#
# Revision: 33
# Processed by: cddbd v1.5.2PL0 Copyright (c) Steve Scherf et al.
# Submitted via: ExactAudioCopy v1.3
#
DISCID=a70e110e
DTITLE=Harrison, George - All Things Must Pass [Disc 1]
DYEAR=2001
DGENRE=Beatles
TTITLE0=I'd Have You Anytime
TTITLE1=My Sweet Lord
TTITLE2=Wah-Wah
TTITLE3=Isn't It A Pity
TTITLE4=What Is Life
TTITLE5=If Not For You
TTITLE6=Behind That Locked Door
TTITLE7=Let It Down
TTITLE8=Run Of The Mill
TTITLE9=I Live For You
TTITLE10=Beware Of Darkness
TTITLE11=Let It Down
TTITLE12=What Is Life
TTITLE13=My Sweet Lord (2000)
EXTD=Remastered 2001
EXTT0=
EXTT1=
EXTT2=
EXTT3=
EXTT4=
EXTT5=
EXTT6=
EXTT7=
EXTT8=
EXTT9=
EXTT10=
EXTT11=
EXTT12=
EXTT13=
PLAYORDER=
